<?xml version="1.0" standalone="no"?><!DOCTYPE svg PUBLIC "-//W3C//DTD SVG 1.1//EN" "http://www.w3.org/Graphics/SVG/1.1/DTD/svg11.dtd"><svg t="1684052587664" class="icon" viewBox="0 0 1024 1024" version="1.1" xmlns="http://www.w3.org/2000/svg" p-id="2103" xmlns:xlink="http://www.w3.org/1999/xlink" width="200" height="200"><path d="M154.73152 774.7584a44.57984 44.57984 0 0 1-31.81056-13.4912 45.37344 45.37344 0 0 1-12.69248-32.61952l4.6848-177.47456a44.89728 44.89728 0 0 1 13.04064-30.57664l432.09216-435.7632a44.26752 44.26752 0 0 1 62.976 0l175.24224 176.73216a45.22496 45.22496 0 0 1 0 63.488l-431.99488 435.68128a44.032 44.032 0 0 1-31.28832 13.15328l-180.03456 0.8704h-0.21504z m23.4752-214.2464l-3.96288 150.0928 152.63232-0.73728 413.04576-416.54784-148.38784-149.64736zM900.096 952.32H123.904a32.03072 32.03072 0 0 1 0-64.06144h776.192a32.03072 32.03072 0 0 1 0 64.06144z" fill="#4A4A4A" p-id="2104"></path><path d="M900.14208 763.648h-322.17088a32.256 32.256 0 0 1 0-64.512h322.17088a32.256 32.256 0 0 1 0 64.512z" fill="#FF7214" p-id="2105"></path></svg>