<?xml version="1.0" standalone="no"?><!DOCTYPE svg PUBLIC "-//W3C//DTD SVG 1.1//EN" "http://www.w3.org/Graphics/SVG/1.1/DTD/svg11.dtd"><svg t="1681032281572" class="icon" viewBox="0 0 1024 1024" version="1.1" xmlns="http://www.w3.org/2000/svg" p-id="1545" xmlns:xlink="http://www.w3.org/1999/xlink" width="128" height="128"><path d="M992.426667 311.466667L753.493333 65.024a107.434667 107.434667 0 0 0-154.965333 0L32.512 648.96c-42.752 44.117333-42.752 115.626667 0 159.829333l145.493333 150.101334c20.48 21.333333 48.384 33.194667 77.482667 33.109333h603.306667a37.12 37.12 0 0 0 36.522666-37.717333 37.12 37.12 0 0 0-36.522666-37.632H560.725333l431.701334-445.354667c20.565333-21.162667 32.085333-49.92 32-79.957333a114.090667 114.090667 0 0 0-32-79.872z m-716.885334 605.184h-20.053333a35.84 35.84 0 0 1-25.770667-11.093334L84.053333 755.626667a38.741333 38.741333 0 0 1 0-53.333334l148.224-152.832L522.922667 849.066667l-54.869334 56.490666a35.84 35.84 0 0 1-25.770666 11.093334H275.541333z" fill="#909399" p-id="1546"></path></svg>